<svg width="1396" height="897" viewBox="0 0 1396 897" fill="none" xmlns="http://www.w3.org/2000/svg">
<line x1="6.81194e-08" y1="852" x2="1396" y2="852" stroke="white" stroke-width="3"/>
<line x1="6.81194e-08" y1="802" x2="1396" y2="802" stroke="white" stroke-width="3"/>
<line x1="6.81194e-08" y1="752" x2="1396" y2="752" stroke="white" stroke-width="3"/>
<line x1="6.81194e-08" y1="702" x2="1396" y2="702" stroke="white" stroke-width="3"/>
<line x1="6.81194e-08" y1="652" x2="1396" y2="652" stroke="white" stroke-width="3"/>
<line x1="6.81194e-08" y1="602" x2="1396" y2="602" stroke="white" stroke-width="3"/>
<line x1="6.81194e-08" y1="552" x2="1396" y2="552" stroke="white" stroke-width="3"/>
<line x1="6.81194e-08" y1="502" x2="1396" y2="502" stroke="white" stroke-width="3"/>
<line x1="6.81194e-08" y1="452" x2="1396" y2="452" stroke="white" stroke-width="3"/>
<line x1="6.81194e-08" y1="402" x2="1396" y2="402" stroke="white" stroke-width="3"/>
<line x1="6.81194e-08" y1="352" x2="1396" y2="352" stroke="white" stroke-width="3"/>
<line x1="6.81194e-08" y1="302" x2="1396" y2="302" stroke="white" stroke-width="3"/>
<line x1="6.81194e-08" y1="252" x2="1396" y2="252" stroke="white" stroke-width="3"/>
<line x1="6.81194e-08" y1="202" x2="1396" y2="202" stroke="white" stroke-width="3"/>
<line x1="6.81194e-08" y1="152" x2="1396" y2="152" stroke="white" stroke-width="3"/>
<line x1="6.81194e-08" y1="102" x2="1396" y2="102" stroke="white" stroke-width="3"/>
<line x1="6.81194e-08" y1="52.0002" x2="1396" y2="52.0002" stroke="white" stroke-width="3"/>
<line x1="6.81194e-08" y1="2" x2="1396" y2="1.99998" stroke="white" stroke-width="3"/>
<line x1="24.5" y1="13" x2="24.5" y2="897" stroke="white" stroke-width="3"/>
<line x1="74.5" y1="4" x2="74.5" y2="888" stroke="white" stroke-width="3"/>
<line x1="124.5" y1="4" x2="124.5" y2="888" stroke="white" stroke-width="3"/>
<line x1="174.5" y1="4" x2="174.5" y2="888" stroke="white" stroke-width="3"/>
<line x1="224.5" y1="4" x2="224.5" y2="888" stroke="white" stroke-width="3"/>
<line x1="274.5" y1="4" x2="274.5" y2="888" stroke="white" stroke-width="3"/>
<line x1="324.5" y1="4" x2="324.5" y2="888" stroke="white" stroke-width="3"/>
<line x1="374.5" y1="4" x2="374.5" y2="888" stroke="white" stroke-width="3"/>
<line x1="424.5" y1="4" x2="424.5" y2="888" stroke="white" stroke-width="3"/>
<line x1="474.5" y1="4" x2="474.5" y2="888" stroke="white" stroke-width="3"/>
<line x1="524.5" y1="4" x2="524.5" y2="888" stroke="white" stroke-width="3"/>
<line x1="574.5" y1="4" x2="574.5" y2="888" stroke="white" stroke-width="3"/>
<line x1="624.5" y1="4" x2="624.5" y2="888" stroke="white" stroke-width="3"/>
<line x1="674.5" y1="4" x2="674.5" y2="888" stroke="white" stroke-width="3"/>
<line x1="724.5" y1="4" x2="724.5" y2="888" stroke="white" stroke-width="3"/>
<line x1="774.5" y1="4" x2="774.5" y2="888" stroke="white" stroke-width="3"/>
<line x1="824.5" y1="4" x2="824.5" y2="888" stroke="white" stroke-width="3"/>
<line x1="874.5" y1="4" x2="874.5" y2="888" stroke="white" stroke-width="3"/>
<line x1="924.5" y1="4" x2="924.5" y2="888" stroke="white" stroke-width="3"/>
<line x1="974.5" y1="4" x2="974.5" y2="888" stroke="white" stroke-width="3"/>
<line x1="1024.5" y1="4" x2="1024.5" y2="888" stroke="white" stroke-width="3"/>
<line x1="1074.5" y1="4" x2="1074.5" y2="888" stroke="white" stroke-width="3"/>
<line x1="1124.5" y1="4" x2="1124.5" y2="888" stroke="white" stroke-width="3"/>
<line x1="1174.5" y1="4" x2="1174.5" y2="888" stroke="white" stroke-width="3"/>
<line x1="1224.5" y1="4" x2="1224.5" y2="888" stroke="white" stroke-width="3"/>
<line x1="1274.5" y1="4" x2="1274.5" y2="888" stroke="white" stroke-width="3"/>
<line x1="1324.5" y1="4" x2="1324.5" y2="888" stroke="white" stroke-width="3"/>
<line x1="1374.5" y1="4" x2="1374.5" y2="888" stroke="white" stroke-width="3"/>
</svg>
